{
    "asset" : {
        "generator" : "Khronos glTF Blender I/O v1.1.46",
        "version" : "2.0"
    },
    "scene" : 0,
    "scenes" : [
        {
            "name" : "Scene",
            "nodes" : [
                0
            ]
        }
    ],
    "nodes" : [
        {
            "mesh" : 0,
            "name" : "Commode",
            "rotation" : [
                0,
                0.7071067690849304,
                0,
                0.7071068286895752
            ],
            "scale" : [
                0.6730695962905884,
                0.6730695962905884,
                0.6730695962905884
            ],
            "translation" : [
                -0.8097140789031982,
                -0.5834912061691284,
                0.6767888069152832
            ]
        }
    ],
    "materials" : [
        {
            "doubleSided" : true,
            "emissiveFactor" : [
                0,
                0,
                0
            ],
            "name" : "Material.045",
            "pbrMetallicRoughness" : {
                "baseColorFactor" : [
                    0.20480187237262726,
                    0.062960185110569,
                    0.017066070809960365,
                    1
                ],
                "metallicFactor" : 0,
                "roughnessFactor" : 0.5
            }
        }
    ],
    "meshes" : [
        {
            "name" : "Cube.053",
            "primitives" : [
                {
                    "attributes" : {
                        "POSITION" : 0,
                        "NORMAL" : 1,
                        "TEXCOORD_0" : 2
                    },
                    "indices" : 3,
                    "material" : 0
                }
            ]
        }
    ],
    "accessors" : [
        {
            "bufferView" : 0,
            "componentType" : 5126,
            "count" : 540,
            "max" : [
                0.4452991783618927,
                0.6088477969169617,
                0.2538796663284302
            ],
            "min" : [
                -0.4428209066390991,
                -0.43853384256362915,
                -0.282305508852005
            ],
            "type" : "VEC3"
        },
        {
            "bufferView" : 1,
            "componentType" : 5126,
            "count" : 540,
            "type" : "VEC3"
        },
        {
            "bufferView" : 2,
            "componentType" : 5126,
            "count" : 540,
            "type" : "VEC2"
        },
        {
            "bufferView" : 3,
            "componentType" : 5123,
            "count" : 840,
            "type" : "SCALAR"
        }
    ],
    "bufferViews" : [
        {
            "buffer" : 0,
            "byteLength" : 6480,
            "byteOffset" : 0
        },
        {
            "buffer" : 0,
            "byteLength" : 6480,
            "byteOffset" : 6480
        },
        {
            "buffer" : 0,
            "byteLength" : 4320,
            "byteOffset" : 12960
        },
        {
            "buffer" : 0,
            "byteLength" : 1680,
            "byteOffset" : 17280
        }
    ],
    "buffers" : [
        {
            "byteLength" : 18960,
            "uri" : "MEUBLE.bin"
        }
    ]
}
