{
    "asset" : {
        "generator" : "Khronos glTF Blender I/O v1.1.46",
        "version" : "2.0"
    },
    "scene" : 0,
    "scenes" : [
        {
            "name" : "Scene",
            "nodes" : [
                0
            ]
        }
    ],
    "nodes" : [
        {
            "mesh" : 0,
            "name" : "Cube"
        }
    ],
    "materials" : [
        {
            "doubleSided" : true,
            "emissiveFactor" : [
                0,
                0,
                0
            ],
            "name" : "Material.015",
            "normalTexture" : {
                "index" : 0,
                "scale" : 10,
                "texCoord" : 0
            },
            "pbrMetallicRoughness" : {
                "baseColorTexture" : {
                    "index" : 1,
                    "texCoord" : 0
                },
                "metallicFactor" : 0,
                "metallicRoughnessTexture" : {
                    "index" : 2,
                    "texCoord" : 0
                }
            }
        },
        {
            "doubleSided" : true,
            "emissiveFactor" : [
                0,
                0,
                0
            ],
            "name" : "Material.017",
            "normalTexture" : {
                "index" : 3,
                "scale" : 10,
                "texCoord" : 0
            },
            "pbrMetallicRoughness" : {
                "baseColorTexture" : {
                    "index" : 4,
                    "texCoord" : 0
                },
                "metallicFactor" : 0,
                "metallicRoughnessTexture" : {
                    "index" : 5,
                    "texCoord" : 0
                }
            }
        },
        {
            "doubleSided" : true,
            "emissiveFactor" : [
                0,
                0,
                0
            ],
            "name" : "Material.054",
            "normalTexture" : {
                "index" : 6,
                "scale" : 10,
                "texCoord" : 0
            },
            "pbrMetallicRoughness" : {
                "baseColorTexture" : {
                    "index" : 7,
                    "texCoord" : 0
                },
                "metallicFactor" : 0,
                "metallicRoughnessTexture" : {
                    "index" : 8,
                    "texCoord" : 0
                }
            }
        },
        {
            "doubleSided" : true,
            "emissiveFactor" : [
                0,
                0,
                0
            ],
            "name" : "Material.045",
            "normalTexture" : {
                "index" : 9,
                "scale" : 10,
                "texCoord" : 0
            },
            "pbrMetallicRoughness" : {
                "baseColorTexture" : {
                    "index" : 10,
                    "texCoord" : 0
                },
                "metallicFactor" : 0,
                "metallicRoughnessTexture" : {
                    "index" : 11,
                    "texCoord" : 0
                }
            }
        },
        {
            "doubleSided" : true,
            "emissiveFactor" : [
                0,
                0,
                0
            ],
            "name" : "Material.038",
            "normalTexture" : {
                "index" : 12,
                "scale" : 10,
                "texCoord" : 0
            },
            "pbrMetallicRoughness" : {
                "baseColorTexture" : {
                    "index" : 13,
                    "texCoord" : 0
                },
                "metallicFactor" : 0,
                "metallicRoughnessTexture" : {
                    "index" : 14,
                    "texCoord" : 0
                }
            }
        },
        {
            "doubleSided" : true,
            "emissiveFactor" : [
                0,
                0,
                0
            ],
            "name" : "Material.014",
            "normalTexture" : {
                "index" : 15,
                "scale" : 10,
                "texCoord" : 0
            },
            "pbrMetallicRoughness" : {
                "baseColorTexture" : {
                    "index" : 16,
                    "texCoord" : 0
                },
                "metallicFactor" : 0,
                "metallicRoughnessTexture" : {
                    "index" : 17,
                    "texCoord" : 0
                }
            }
        },
        {
            "doubleSided" : true,
            "emissiveFactor" : [
                0,
                0,
                0
            ],
            "name" : "Material.024",
            "normalTexture" : {
                "index" : 18,
                "scale" : 10,
                "texCoord" : 0
            },
            "pbrMetallicRoughness" : {
                "baseColorTexture" : {
                    "index" : 19,
                    "texCoord" : 0
                },
                "metallicFactor" : 0,
                "metallicRoughnessTexture" : {
                    "index" : 20,
                    "texCoord" : 0
                }
            }
        },
        {
            "doubleSided" : true,
            "emissiveFactor" : [
                0,
                0,
                0
            ],
            "name" : "Material.011",
            "normalTexture" : {
                "index" : 21,
                "scale" : 10,
                "texCoord" : 0
            },
            "pbrMetallicRoughness" : {
                "baseColorTexture" : {
                    "index" : 22,
                    "texCoord" : 0
                },
                "metallicFactor" : 0,
                "metallicRoughnessTexture" : {
                    "index" : 23,
                    "texCoord" : 0
                }
            }
        },
        {
            "doubleSided" : true,
            "emissiveFactor" : [
                0,
                0,
                0
            ],
            "name" : "Material.018",
            "normalTexture" : {
                "index" : 24,
                "scale" : 10,
                "texCoord" : 0
            },
            "pbrMetallicRoughness" : {
                "baseColorTexture" : {
                    "index" : 25,
                    "texCoord" : 0
                },
                "metallicFactor" : 0,
                "metallicRoughnessTexture" : {
                    "index" : 26,
                    "texCoord" : 0
                }
            }
        },
        {
            "doubleSided" : true,
            "emissiveFactor" : [
                0,
                0,
                0
            ],
            "name" : "Material.013",
            "normalTexture" : {
                "index" : 27,
                "scale" : 10,
                "texCoord" : 0
            },
            "pbrMetallicRoughness" : {
                "baseColorFactor" : [
                    0.8000000715255737,
                    0.15588875114917755,
                    0.11027687042951584,
                    1
                ],
                "metallicFactor" : 0,
                "metallicRoughnessTexture" : {
                    "index" : 28,
                    "texCoord" : 0
                }
            }
        }
    ],
    "meshes" : [
        {
            "name" : "Cube.010",
            "primitives" : [
                {
                    "attributes" : {
                        "POSITION" : 0,
                        "NORMAL" : 1,
                        "TEXCOORD_0" : 2
                    },
                    "indices" : 3,
                    "material" : 0
                },
                {
                    "attributes" : {
                        "POSITION" : 4,
                        "NORMAL" : 5,
                        "TEXCOORD_0" : 6
                    },
                    "indices" : 7,
                    "material" : 1
                },
                {
                    "attributes" : {
                        "POSITION" : 8,
                        "NORMAL" : 9,
                        "TEXCOORD_0" : 10
                    },
                    "indices" : 11,
                    "material" : 2
                },
                {
                    "attributes" : {
                        "POSITION" : 12,
                        "NORMAL" : 13,
                        "TEXCOORD_0" : 14
                    },
                    "indices" : 15,
                    "material" : 3
                },
                {
                    "attributes" : {
                        "POSITION" : 16,
                        "NORMAL" : 17,
                        "TEXCOORD_0" : 18
                    },
                    "indices" : 19,
                    "material" : 4
                },
                {
                    "attributes" : {
                        "POSITION" : 20,
                        "NORMAL" : 21,
                        "TEXCOORD_0" : 22
                    },
                    "indices" : 23,
                    "material" : 5
                },
                {
                    "attributes" : {
                        "POSITION" : 24,
                        "NORMAL" : 25,
                        "TEXCOORD_0" : 26
                    },
                    "indices" : 27,
                    "material" : 6
                },
                {
                    "attributes" : {
                        "POSITION" : 28,
                        "NORMAL" : 29,
                        "TEXCOORD_0" : 30
                    },
                    "indices" : 3,
                    "material" : 7
                },
                {
                    "attributes" : {
                        "POSITION" : 31,
                        "NORMAL" : 32,
                        "TEXCOORD_0" : 33
                    },
                    "indices" : 7,
                    "material" : 8
                },
                {
                    "attributes" : {
                        "POSITION" : 34,
                        "NORMAL" : 35,
                        "TEXCOORD_0" : 36
                    },
                    "indices" : 37,
                    "material" : 9
                }
            ]
        }
    ],
    "textures" : [
        {
            "source" : 0
        },
        {
            "source" : 1
        },
        {
            "source" : 2
        },
        {
            "source" : 0
        },
        {
            "source" : 1
        },
        {
            "source" : 2
        },
        {
            "source" : 0
        },
        {
            "source" : 1
        },
        {
            "source" : 2
        },
        {
            "source" : 0
        },
        {
            "source" : 1
        },
        {
            "source" : 2
        },
        {
            "source" : 0
        },
        {
            "source" : 1
        },
        {
            "source" : 2
        },
        {
            "source" : 0
        },
        {
            "source" : 1
        },
        {
            "source" : 2
        },
        {
            "source" : 0
        },
        {
            "source" : 1
        },
        {
            "source" : 2
        },
        {
            "source" : 0
        },
        {
            "source" : 1
        },
        {
            "source" : 2
        },
        {
            "source" : 0
        },
        {
            "source" : 1
        },
        {
            "source" : 2
        },
        {
            "source" : 0
        },
        {
            "source" : 2
        }
    ],
    "images" : [
        {
            "mimeType" : "image/png",
            "name" : "Normal",
            "uri" : "Normal.png"
        },
        {
            "mimeType" : "image/png",
            "name" : "Diffuse",
            "uri" : "Diffuse.png"
        },
        {
            "mimeType" : "image/png",
            "name" : "Roughness",
            "uri" : "Roughness.png"
        }
    ],
    "accessors" : [
        {
            "bufferView" : 0,
            "componentType" : 5126,
            "count" : 20,
            "max" : [
                1,
                0.059755146503448486,
                1
            ],
            "min" : [
                -1,
                -0.059755146503448486,
                -1
            ],
            "type" : "VEC3"
        },
        {
            "bufferView" : 1,
            "componentType" : 5126,
            "count" : 20,
            "type" : "VEC3"
        },
        {
            "bufferView" : 2,
            "componentType" : 5126,
            "count" : 20,
            "type" : "VEC2"
        },
        {
            "bufferView" : 3,
            "componentType" : 5123,
            "count" : 30,
            "type" : "SCALAR"
        },
        {
            "bufferView" : 4,
            "componentType" : 5126,
            "count" : 4,
            "max" : [
                1,
                0.059755146503448486,
                1
            ],
            "min" : [
                -1,
                0.059755146503448486,
                -1
            ],
            "type" : "VEC3"
        },
        {
            "bufferView" : 5,
            "componentType" : 5126,
            "count" : 4,
            "type" : "VEC3"
        },
        {
            "bufferView" : 6,
            "componentType" : 5126,
            "count" : 4,
            "type" : "VEC2"
        },
        {
            "bufferView" : 7,
            "componentType" : 5123,
            "count" : 6,
            "type" : "SCALAR"
        },
        {
            "bufferView" : 8,
            "componentType" : 5126,
            "count" : 186,
            "max" : [
                0.3604395389556885,
                0.677520215511322,
                -0.059326812624931335
            ],
            "min" : [
                -0.07022596895694733,
                0.0217667818069458,
                -0.48999232053756714
            ],
            "type" : "VEC3"
        },
        {
            "bufferView" : 9,
            "componentType" : 5126,
            "count" : 186,
            "type" : "VEC3"
        },
        {
            "bufferView" : 10,
            "componentType" : 5126,
            "count" : 186,
            "type" : "VEC2"
        },
        {
            "bufferView" : 11,
            "componentType" : 5123,
            "count" : 324,
            "type" : "SCALAR"
        },
        {
            "bufferView" : 12,
            "componentType" : 5126,
            "count" : 473,
            "max" : [
                -0.6388353705406189,
                0.7577319145202637,
                0.974838137626648
            ],
            "min" : [
                -0.999725341796875,
                0.052771180868148804,
                0.37707147002220154
            ],
            "type" : "VEC3"
        },
        {
            "bufferView" : 13,
            "componentType" : 5126,
            "count" : 473,
            "type" : "VEC3"
        },
        {
            "bufferView" : 14,
            "componentType" : 5126,
            "count" : 473,
            "type" : "VEC2"
        },
        {
            "bufferView" : 15,
            "componentType" : 5123,
            "count" : 840,
            "type" : "SCALAR"
        },
        {
            "bufferView" : 16,
            "componentType" : 5126,
            "count" : 272,
            "max" : [
                0.5665367245674133,
                0.5045832991600037,
                -0.49128878116607666
            ],
            "min" : [
                -0.33315733075141907,
                0.043409138917922974,
                -0.9760397672653198
            ],
            "type" : "VEC3"
        },
        {
            "bufferView" : 17,
            "componentType" : 5126,
            "count" : 272,
            "type" : "VEC3"
        },
        {
            "bufferView" : 18,
            "componentType" : 5126,
            "count" : 272,
            "type" : "VEC2"
        },
        {
            "bufferView" : 19,
            "componentType" : 5123,
            "count" : 408,
            "type" : "SCALAR"
        },
        {
            "bufferView" : 20,
            "componentType" : 5126,
            "count" : 1070,
            "max" : [
                -1.0040831565856934,
                1.8463956117630005,
                0.5930492877960205
            ],
            "min" : [
                -1.0540516376495361,
                0.7549945116043091,
                -0.4983518123626709
            ],
            "type" : "VEC3"
        },
        {
            "bufferView" : 21,
            "componentType" : 5126,
            "count" : 1070,
            "type" : "VEC3"
        },
        {
            "bufferView" : 22,
            "componentType" : 5126,
            "count" : 1070,
            "type" : "VEC2"
        },
        {
            "bufferView" : 23,
            "componentType" : 5123,
            "count" : 1944,
            "type" : "SCALAR"
        },
        {
            "bufferView" : 24,
            "componentType" : 5126,
            "count" : 200,
            "max" : [
                0.369234561920166,
                0.8491413593292236,
                -0.8526650667190552
            ],
            "min" : [
                -0.19450914859771729,
                0.5108300447463989,
                -0.9202326536178589
            ],
            "type" : "VEC3"
        },
        {
            "bufferView" : 25,
            "componentType" : 5126,
            "count" : 200,
            "type" : "VEC3"
        },
        {
            "bufferView" : 26,
            "componentType" : 5126,
            "count" : 200,
            "type" : "VEC2"
        },
        {
            "bufferView" : 27,
            "componentType" : 5123,
            "count" : 324,
            "type" : "SCALAR"
        },
        {
            "bufferView" : 28,
            "componentType" : 5126,
            "count" : 20,
            "max" : [
                1,
                1.9385066032409668,
                -0.9968852996826172
            ],
            "min" : [
                -1,
                -0.06149333715438843,
                -1.1163957118988037
            ],
            "type" : "VEC3"
        },
        {
            "bufferView" : 29,
            "componentType" : 5126,
            "count" : 20,
            "type" : "VEC3"
        },
        {
            "bufferView" : 30,
            "componentType" : 5126,
            "count" : 20,
            "type" : "VEC2"
        },
        {
            "bufferView" : 31,
            "componentType" : 5126,
            "count" : 4,
            "max" : [
                1,
                1.9385066032409668,
                -0.9968852996826172
            ],
            "min" : [
                -1,
                -0.06149333715438843,
                -0.9968854188919067
            ],
            "type" : "VEC3"
        },
        {
            "bufferView" : 32,
            "componentType" : 5126,
            "count" : 4,
            "type" : "VEC3"
        },
        {
            "bufferView" : 33,
            "componentType" : 5126,
            "count" : 4,
            "type" : "VEC2"
        },
        {
            "bufferView" : 34,
            "componentType" : 5126,
            "count" : 56,
            "max" : [
                -0.9999871253967285,
                1.9385066032409668,
                0.9976953864097595
            ],
            "min" : [
                -1.1194977760314941,
                -0.06149333715438843,
                -1.1193324327468872
            ],
            "type" : "VEC3"
        },
        {
            "bufferView" : 35,
            "componentType" : 5126,
            "count" : 56,
            "type" : "VEC3"
        },
        {
            "bufferView" : 36,
            "componentType" : 5126,
            "count" : 56,
            "type" : "VEC2"
        },
        {
            "bufferView" : 37,
            "componentType" : 5123,
            "count" : 96,
            "type" : "SCALAR"
        }
    ],
    "bufferViews" : [
        {
            "buffer" : 0,
            "byteLength" : 240,
            "byteOffset" : 0
        },
        {
            "buffer" : 0,
            "byteLength" : 240,
            "byteOffset" : 240
        },
        {
            "buffer" : 0,
            "byteLength" : 160,
            "byteOffset" : 480
        },
        {
            "buffer" : 0,
            "byteLength" : 60,
            "byteOffset" : 640
        },
        {
            "buffer" : 0,
            "byteLength" : 48,
            "byteOffset" : 700
        },
        {
            "buffer" : 0,
            "byteLength" : 48,
            "byteOffset" : 748
        },
        {
            "buffer" : 0,
            "byteLength" : 32,
            "byteOffset" : 796
        },
        {
            "buffer" : 0,
            "byteLength" : 12,
            "byteOffset" : 828
        },
        {
            "buffer" : 0,
            "byteLength" : 2232,
            "byteOffset" : 840
        },
        {
            "buffer" : 0,
            "byteLength" : 2232,
            "byteOffset" : 3072
        },
        {
            "buffer" : 0,
            "byteLength" : 1488,
            "byteOffset" : 5304
        },
        {
            "buffer" : 0,
            "byteLength" : 648,
            "byteOffset" : 6792
        },
        {
            "buffer" : 0,
            "byteLength" : 5676,
            "byteOffset" : 7440
        },
        {
            "buffer" : 0,
            "byteLength" : 5676,
            "byteOffset" : 13116
        },
        {
            "buffer" : 0,
            "byteLength" : 3784,
            "byteOffset" : 18792
        },
        {
            "buffer" : 0,
            "byteLength" : 1680,
            "byteOffset" : 22576
        },
        {
            "buffer" : 0,
            "byteLength" : 3264,
            "byteOffset" : 24256
        },
        {
            "buffer" : 0,
            "byteLength" : 3264,
            "byteOffset" : 27520
        },
        {
            "buffer" : 0,
            "byteLength" : 2176,
            "byteOffset" : 30784
        },
        {
            "buffer" : 0,
            "byteLength" : 816,
            "byteOffset" : 32960
        },
        {
            "buffer" : 0,
            "byteLength" : 12840,
            "byteOffset" : 33776
        },
        {
            "buffer" : 0,
            "byteLength" : 12840,
            "byteOffset" : 46616
        },
        {
            "buffer" : 0,
            "byteLength" : 8560,
            "byteOffset" : 59456
        },
        {
            "buffer" : 0,
            "byteLength" : 3888,
            "byteOffset" : 68016
        },
        {
            "buffer" : 0,
            "byteLength" : 2400,
            "byteOffset" : 71904
        },
        {
            "buffer" : 0,
            "byteLength" : 2400,
            "byteOffset" : 74304
        },
        {
            "buffer" : 0,
            "byteLength" : 1600,
            "byteOffset" : 76704
        },
        {
            "buffer" : 0,
            "byteLength" : 648,
            "byteOffset" : 78304
        },
        {
            "buffer" : 0,
            "byteLength" : 240,
            "byteOffset" : 78952
        },
        {
            "buffer" : 0,
            "byteLength" : 240,
            "byteOffset" : 79192
        },
        {
            "buffer" : 0,
            "byteLength" : 160,
            "byteOffset" : 79432
        },
        {
            "buffer" : 0,
            "byteLength" : 48,
            "byteOffset" : 79592
        },
        {
            "buffer" : 0,
            "byteLength" : 48,
            "byteOffset" : 79640
        },
        {
            "buffer" : 0,
            "byteLength" : 32,
            "byteOffset" : 79688
        },
        {
            "buffer" : 0,
            "byteLength" : 672,
            "byteOffset" : 79720
        },
        {
            "buffer" : 0,
            "byteLength" : 672,
            "byteOffset" : 80392
        },
        {
            "buffer" : 0,
            "byteLength" : 448,
            "byteOffset" : 81064
        },
        {
            "buffer" : 0,
            "byteLength" : 192,
            "byteOffset" : 81512
        }
    ],
    "buffers" : [
        {
            "byteLength" : 81704,
            "uri" : "SceneVers2.bin"
        }
    ]
}
