{
    "asset" : {
        "generator" : "Khronos glTF Blender I/O v1.1.46",
        "version" : "2.0"
    },
    "scene" : 0,
    "scenes" : [
        {
            "name" : "Scene",
            "nodes" : [
                0,
                1
            ]
        }
    ],
    "nodes" : [
        {
            "mesh" : 0,
            "name" : "Plane.005",
            "scale" : [
                12.107728958129883,
                12.107728958129883,
                12.107728958129883
            ],
            "translation" : [
                0.019070684909820557,
                -2.182034969329834,
                0.5764853358268738
            ]
        },
        {
            "mesh" : 1,
            "name" : "Plane.001",
            "rotation" : [
                0,
                -0.7071067690849304,
                0,
                0.7071068286895752
            ],
            "scale" : [
                12.107728958129883,
                12.107728958129883,
                12.107728958129883
            ],
            "translation" : [
                1.9525330066680908,
                1.252969741821289,
                -0.9734557271003723
            ]
        }
    ],
    "materials" : [
        {
            "doubleSided" : true,
            "emissiveFactor" : [
                0,
                0,
                0
            ],
            "name" : "Material.015",
            "pbrMetallicRoughness" : {
                "baseColorTexture" : {
                    "index" : 0,
                    "texCoord" : 0
                },
                "metallicFactor" : 0,
                "roughnessFactor" : 0.5
            }
        },
        {
            "doubleSided" : true,
            "emissiveFactor" : [
                0,
                0,
                0
            ],
            "name" : "Material.017",
            "normalTexture" : {
                "index" : 1,
                "texCoord" : 0
            },
            "pbrMetallicRoughness" : {
                "baseColorTexture" : {
                    "index" : 2,
                    "texCoord" : 0
                },
                "metallicFactor" : 0,
                "metallicRoughnessTexture" : {
                    "index" : 3,
                    "texCoord" : 0
                }
            }
        },
        {
            "doubleSided" : true,
            "emissiveFactor" : [
                0,
                0,
                0
            ],
            "name" : "Material.011",
            "pbrMetallicRoughness" : {
                "baseColorTexture" : {
                    "index" : 4,
                    "texCoord" : 0
                },
                "metallicFactor" : 0,
                "roughnessFactor" : 0.5
            }
        },
        {
            "doubleSided" : true,
            "emissiveFactor" : [
                0,
                0,
                0
            ],
            "name" : "Material.018",
            "pbrMetallicRoughness" : {
                "baseColorTexture" : {
                    "index" : 5,
                    "texCoord" : 0
                },
                "metallicFactor" : 0,
                "roughnessFactor" : 0.5
            }
        },
        {
            "doubleSided" : true,
            "emissiveFactor" : [
                0,
                0,
                0
            ],
            "name" : "Material.013",
            "pbrMetallicRoughness" : {
                "baseColorTexture" : {
                    "index" : 6,
                    "texCoord" : 0
                },
                "metallicFactor" : 0,
                "roughnessFactor" : 0.5
            }
        },
        {
            "doubleSided" : true,
            "emissiveFactor" : [
                0,
                0,
                0
            ],
            "name" : "Material.040",
            "pbrMetallicRoughness" : {
                "baseColorTexture" : {
                    "index" : 7,
                    "texCoord" : 0
                },
                "metallicFactor" : 0,
                "roughnessFactor" : 0.5
            }
        },
        {
            "doubleSided" : true,
            "emissiveFactor" : [
                0,
                0,
                0
            ],
            "name" : "Material.039",
            "pbrMetallicRoughness" : {
                "baseColorTexture" : {
                    "index" : 8,
                    "texCoord" : 0
                },
                "metallicFactor" : 0,
                "roughnessFactor" : 0.5
            }
        },
        {
            "doubleSided" : true,
            "emissiveFactor" : [
                0,
                0,
                0
            ],
            "name" : "Material.035",
            "normalTexture" : {
                "index" : 9,
                "scale" : 10,
                "texCoord" : 0
            },
            "pbrMetallicRoughness" : {
                "baseColorTexture" : {
                    "index" : 10,
                    "texCoord" : 0
                },
                "metallicFactor" : 0,
                "metallicRoughnessTexture" : {
                    "index" : 11,
                    "texCoord" : 0
                }
            }
        },
        {
            "doubleSided" : true,
            "emissiveFactor" : [
                0,
                0,
                0
            ],
            "name" : "Material.023",
            "pbrMetallicRoughness" : {
                "baseColorTexture" : {
                    "index" : 12,
                    "texCoord" : 0
                },
                "metallicFactor" : 0,
                "roughnessFactor" : 0.5
            }
        },
        {
            "doubleSided" : true,
            "emissiveFactor" : [
                0,
                0,
                0
            ],
            "name" : "Material.022",
            "pbrMetallicRoughness" : {
                "baseColorTexture" : {
                    "index" : 13,
                    "texCoord" : 0
                },
                "metallicFactor" : 0,
                "roughnessFactor" : 0.5
            }
        },
        {
            "doubleSided" : true,
            "emissiveFactor" : [
                0,
                0,
                0
            ],
            "name" : "Material.021",
            "pbrMetallicRoughness" : {
                "baseColorTexture" : {
                    "index" : 14,
                    "texCoord" : 0
                },
                "metallicFactor" : 0,
                "roughnessFactor" : 0.5
            }
        }
    ],
    "meshes" : [
        {
            "name" : "Plane.004",
            "primitives" : [
                {
                    "attributes" : {
                        "POSITION" : 0,
                        "NORMAL" : 1,
                        "TEXCOORD_0" : 2
                    },
                    "indices" : 3,
                    "material" : 0
                },
                {
                    "attributes" : {
                        "POSITION" : 4,
                        "NORMAL" : 5,
                        "TEXCOORD_0" : 6
                    },
                    "indices" : 7,
                    "material" : 1
                },
                {
                    "attributes" : {
                        "POSITION" : 8,
                        "NORMAL" : 9,
                        "TEXCOORD_0" : 10
                    },
                    "indices" : 11,
                    "material" : 2
                },
                {
                    "attributes" : {
                        "POSITION" : 12,
                        "NORMAL" : 13,
                        "TEXCOORD_0" : 14
                    },
                    "indices" : 7,
                    "material" : 3
                },
                {
                    "attributes" : {
                        "POSITION" : 15,
                        "NORMAL" : 16,
                        "TEXCOORD_0" : 17
                    },
                    "indices" : 18,
                    "material" : 4
                }
            ]
        },
        {
            "name" : "Plane.001",
            "primitives" : [
                {
                    "attributes" : {
                        "POSITION" : 19,
                        "NORMAL" : 20,
                        "TEXCOORD_0" : 21
                    },
                    "indices" : 22,
                    "material" : 5
                },
                {
                    "attributes" : {
                        "POSITION" : 23,
                        "NORMAL" : 24,
                        "TEXCOORD_0" : 25
                    },
                    "indices" : 11,
                    "material" : 6
                },
                {
                    "attributes" : {
                        "POSITION" : 26,
                        "NORMAL" : 27,
                        "TEXCOORD_0" : 28
                    },
                    "indices" : 7,
                    "material" : 7
                },
                {
                    "attributes" : {
                        "POSITION" : 29,
                        "NORMAL" : 30,
                        "TEXCOORD_0" : 31
                    },
                    "indices" : 11,
                    "material" : 8
                },
                {
                    "attributes" : {
                        "POSITION" : 32,
                        "NORMAL" : 33,
                        "TEXCOORD_0" : 34
                    },
                    "indices" : 7,
                    "material" : 9
                },
                {
                    "attributes" : {
                        "POSITION" : 35,
                        "NORMAL" : 36,
                        "TEXCOORD_0" : 37
                    },
                    "indices" : 18,
                    "material" : 10
                }
            ]
        }
    ],
    "textures" : [
        {
            "source" : 0
        },
        {
            "source" : 1
        },
        {
            "source" : 0
        },
        {
            "source" : 2
        },
        {
            "source" : 0
        },
        {
            "source" : 0
        },
        {
            "source" : 0
        },
        {
            "source" : 3
        },
        {
            "source" : 3
        },
        {
            "source" : 4
        },
        {
            "source" : 3
        },
        {
            "source" : 5
        },
        {
            "source" : 3
        },
        {
            "source" : 3
        },
        {
            "source" : 3
        }
    ],
    "images" : [
        {
            "mimeType" : "image/png",
            "name" : "maison_diffuse",
            "uri" : "maison_diffuse.png"
        },
        {
            "mimeType" : "image/png",
            "name" : "maison_normal",
            "uri" : "maison_normal.png"
        },
        {
            "mimeType" : "image/png",
            "name" : "maison_roughness",
            "uri" : "maison_roughness.png"
        },
        {
            "mimeType" : "image/png",
            "name" : "maison2_diffuse",
            "uri" : "maison2_diffuse.png"
        },
        {
            "mimeType" : "image/png",
            "name" : "maison2_normal",
            "uri" : "maison2_normal.png"
        },
        {
            "mimeType" : "image/png",
            "name" : "maison2_roughness",
            "uri" : "maison2_roughness.png"
        }
    ],
    "accessors" : [
        {
            "bufferView" : 0,
            "componentType" : 5126,
            "count" : 1138,
            "max" : [
                1,
                0.33271563053131104,
                1
            ],
            "min" : [
                -1,
                0.1752830594778061,
                -1
            ],
            "type" : "VEC3"
        },
        {
            "bufferView" : 1,
            "componentType" : 5126,
            "count" : 1138,
            "type" : "VEC3"
        },
        {
            "bufferView" : 2,
            "componentType" : 5126,
            "count" : 1138,
            "type" : "VEC2"
        },
        {
            "bufferView" : 3,
            "componentType" : 5123,
            "count" : 1980,
            "type" : "SCALAR"
        },
        {
            "bufferView" : 4,
            "componentType" : 5126,
            "count" : 4,
            "max" : [
                0.08101679384708405,
                0.18515364825725555,
                0.034978874027729034
            ],
            "min" : [
                -0.08416695892810822,
                0.18515364825725555,
                -0.13020488619804382
            ],
            "type" : "VEC3"
        },
        {
            "bufferView" : 5,
            "componentType" : 5126,
            "count" : 4,
            "type" : "VEC3"
        },
        {
            "bufferView" : 6,
            "componentType" : 5126,
            "count" : 4,
            "type" : "VEC2"
        },
        {
            "bufferView" : 7,
            "componentType" : 5123,
            "count" : 6,
            "type" : "SCALAR"
        },
        {
            "bufferView" : 8,
            "componentType" : 5126,
            "count" : 20,
            "max" : [
                0.08101679384708405,
                0.340323269367218,
                -0.12994763255119324
            ],
            "min" : [
                -0.08416695892810822,
                0.17513950169086456,
                -0.1398182213306427
            ],
            "type" : "VEC3"
        },
        {
            "bufferView" : 9,
            "componentType" : 5126,
            "count" : 20,
            "type" : "VEC3"
        },
        {
            "bufferView" : 10,
            "componentType" : 5126,
            "count" : 20,
            "type" : "VEC2"
        },
        {
            "bufferView" : 11,
            "componentType" : 5123,
            "count" : 30,
            "type" : "SCALAR"
        },
        {
            "bufferView" : 12,
            "componentType" : 5126,
            "count" : 4,
            "max" : [
                0.08101679384708405,
                0.340323269367218,
                -0.12994763255119324
            ],
            "min" : [
                -0.08416695892810822,
                0.17513950169086456,
                -0.12994764745235443
            ],
            "type" : "VEC3"
        },
        {
            "bufferView" : 13,
            "componentType" : 5126,
            "count" : 4,
            "type" : "VEC3"
        },
        {
            "bufferView" : 14,
            "componentType" : 5126,
            "count" : 4,
            "type" : "VEC2"
        },
        {
            "bufferView" : 15,
            "componentType" : 5126,
            "count" : 56,
            "max" : [
                -0.08416590094566345,
                0.340323269367218,
                0.03478853031992912
            ],
            "min" : [
                -0.09403650462627411,
                0.17513950169086456,
                -0.14006076753139496
            ],
            "type" : "VEC3"
        },
        {
            "bufferView" : 16,
            "componentType" : 5126,
            "count" : 56,
            "type" : "VEC3"
        },
        {
            "bufferView" : 17,
            "componentType" : 5126,
            "count" : 56,
            "type" : "VEC2"
        },
        {
            "bufferView" : 18,
            "componentType" : 5123,
            "count" : 96,
            "type" : "SCALAR"
        },
        {
            "bufferView" : 19,
            "componentType" : 5126,
            "count" : 1114,
            "max" : [
                -0.001870468258857727,
                0.049032747745513916,
                0.04760859161615372
            ],
            "min" : [
                -0.005997456610202789,
                -0.041108131408691406,
                -0.04253227636218071
            ],
            "type" : "VEC3"
        },
        {
            "bufferView" : 20,
            "componentType" : 5126,
            "count" : 1114,
            "type" : "VEC3"
        },
        {
            "bufferView" : 21,
            "componentType" : 5126,
            "count" : 1114,
            "type" : "VEC2"
        },
        {
            "bufferView" : 22,
            "componentType" : 5123,
            "count" : 1944,
            "type" : "SCALAR"
        },
        {
            "bufferView" : 23,
            "componentType" : 5126,
            "count" : 20,
            "max" : [
                0.1636505126953125,
                -0.09852923452854156,
                0.08121941983699799
            ],
            "min" : [
                -0.0015332326292991638,
                -0.10839982330799103,
                -0.08396434783935547
            ],
            "type" : "VEC3"
        },
        {
            "bufferView" : 24,
            "componentType" : 5126,
            "count" : 20,
            "type" : "VEC3"
        },
        {
            "bufferView" : 25,
            "componentType" : 5126,
            "count" : 20,
            "type" : "VEC2"
        },
        {
            "bufferView" : 26,
            "componentType" : 5126,
            "count" : 4,
            "max" : [
                0.1636505126953125,
                -0.09852923452854156,
                0.08121941983699799
            ],
            "min" : [
                -0.0015332326292991638,
                -0.09852923452854156,
                -0.08396434783935547
            ],
            "type" : "VEC3"
        },
        {
            "bufferView" : 27,
            "componentType" : 5126,
            "count" : 4,
            "type" : "VEC3"
        },
        {
            "bufferView" : 28,
            "componentType" : 5126,
            "count" : 4,
            "type" : "VEC2"
        },
        {
            "bufferView" : 29,
            "componentType" : 5126,
            "count" : 20,
            "max" : [
                0.1636505126953125,
                0.0566403865814209,
                -0.08370709419250488
            ],
            "min" : [
                -0.0015332326292991638,
                -0.10854338109493256,
                -0.09357768297195435
            ],
            "type" : "VEC3"
        },
        {
            "bufferView" : 30,
            "componentType" : 5126,
            "count" : 20,
            "type" : "VEC3"
        },
        {
            "bufferView" : 31,
            "componentType" : 5126,
            "count" : 20,
            "type" : "VEC2"
        },
        {
            "bufferView" : 32,
            "componentType" : 5126,
            "count" : 4,
            "max" : [
                0.1636505126953125,
                0.0566403865814209,
                -0.08370709419250488
            ],
            "min" : [
                -0.0015332326292991638,
                -0.10854338109493256,
                -0.08370710909366608
            ],
            "type" : "VEC3"
        },
        {
            "bufferView" : 33,
            "componentType" : 5126,
            "count" : 4,
            "type" : "VEC3"
        },
        {
            "bufferView" : 34,
            "componentType" : 5126,
            "count" : 4,
            "type" : "VEC2"
        },
        {
            "bufferView" : 35,
            "componentType" : 5126,
            "count" : 56,
            "max" : [
                -0.0015321746468544006,
                0.0566403865814209,
                0.08102907240390778
            ],
            "min" : [
                -0.011402778327465057,
                -0.10854338109493256,
                -0.0938202291727066
            ],
            "type" : "VEC3"
        },
        {
            "bufferView" : 36,
            "componentType" : 5126,
            "count" : 56,
            "type" : "VEC3"
        },
        {
            "bufferView" : 37,
            "componentType" : 5126,
            "count" : 56,
            "type" : "VEC2"
        }
    ],
    "bufferViews" : [
        {
            "buffer" : 0,
            "byteLength" : 13656,
            "byteOffset" : 0
        },
        {
            "buffer" : 0,
            "byteLength" : 13656,
            "byteOffset" : 13656
        },
        {
            "buffer" : 0,
            "byteLength" : 9104,
            "byteOffset" : 27312
        },
        {
            "buffer" : 0,
            "byteLength" : 3960,
            "byteOffset" : 36416
        },
        {
            "buffer" : 0,
            "byteLength" : 48,
            "byteOffset" : 40376
        },
        {
            "buffer" : 0,
            "byteLength" : 48,
            "byteOffset" : 40424
        },
        {
            "buffer" : 0,
            "byteLength" : 32,
            "byteOffset" : 40472
        },
        {
            "buffer" : 0,
            "byteLength" : 12,
            "byteOffset" : 40504
        },
        {
            "buffer" : 0,
            "byteLength" : 240,
            "byteOffset" : 40516
        },
        {
            "buffer" : 0,
            "byteLength" : 240,
            "byteOffset" : 40756
        },
        {
            "buffer" : 0,
            "byteLength" : 160,
            "byteOffset" : 40996
        },
        {
            "buffer" : 0,
            "byteLength" : 60,
            "byteOffset" : 41156
        },
        {
            "buffer" : 0,
            "byteLength" : 48,
            "byteOffset" : 41216
        },
        {
            "buffer" : 0,
            "byteLength" : 48,
            "byteOffset" : 41264
        },
        {
            "buffer" : 0,
            "byteLength" : 32,
            "byteOffset" : 41312
        },
        {
            "buffer" : 0,
            "byteLength" : 672,
            "byteOffset" : 41344
        },
        {
            "buffer" : 0,
            "byteLength" : 672,
            "byteOffset" : 42016
        },
        {
            "buffer" : 0,
            "byteLength" : 448,
            "byteOffset" : 42688
        },
        {
            "buffer" : 0,
            "byteLength" : 192,
            "byteOffset" : 43136
        },
        {
            "buffer" : 0,
            "byteLength" : 13368,
            "byteOffset" : 43328
        },
        {
            "buffer" : 0,
            "byteLength" : 13368,
            "byteOffset" : 56696
        },
        {
            "buffer" : 0,
            "byteLength" : 8912,
            "byteOffset" : 70064
        },
        {
            "buffer" : 0,
            "byteLength" : 3888,
            "byteOffset" : 78976
        },
        {
            "buffer" : 0,
            "byteLength" : 240,
            "byteOffset" : 82864
        },
        {
            "buffer" : 0,
            "byteLength" : 240,
            "byteOffset" : 83104
        },
        {
            "buffer" : 0,
            "byteLength" : 160,
            "byteOffset" : 83344
        },
        {
            "buffer" : 0,
            "byteLength" : 48,
            "byteOffset" : 83504
        },
        {
            "buffer" : 0,
            "byteLength" : 48,
            "byteOffset" : 83552
        },
        {
            "buffer" : 0,
            "byteLength" : 32,
            "byteOffset" : 83600
        },
        {
            "buffer" : 0,
            "byteLength" : 240,
            "byteOffset" : 83632
        },
        {
            "buffer" : 0,
            "byteLength" : 240,
            "byteOffset" : 83872
        },
        {
            "buffer" : 0,
            "byteLength" : 160,
            "byteOffset" : 84112
        },
        {
            "buffer" : 0,
            "byteLength" : 48,
            "byteOffset" : 84272
        },
        {
            "buffer" : 0,
            "byteLength" : 48,
            "byteOffset" : 84320
        },
        {
            "buffer" : 0,
            "byteLength" : 32,
            "byteOffset" : 84368
        },
        {
            "buffer" : 0,
            "byteLength" : 672,
            "byteOffset" : 84400
        },
        {
            "buffer" : 0,
            "byteLength" : 672,
            "byteOffset" : 85072
        },
        {
            "buffer" : 0,
            "byteLength" : 448,
            "byteOffset" : 85744
        }
    ],
    "buffers" : [
        {
            "byteLength" : 86192,
            "uri" : "SceneFinal.bin"
        }
    ]
}
